<?xml version="1.0" encoding="UTF-8"?>
<!DOCTYPE svg PUBLIC "-//W3C//DTD SVG 1.1//EN" "http://www.w3.org/Graphics/SVG/1.1/DTD/svg11.dtd">
<!-- Creator: Corel DESIGNER X6 -->
<svg xmlns="http://www.w3.org/2000/svg" xml:space="preserve" width="105.5mm" height="27mm" version="1.1" style="shape-rendering:geometricPrecision; text-rendering:geometricPrecision; image-rendering:optimizeQuality; fill-rule:evenodd; clip-rule:evenodd"
viewBox="0 0 10550 2700"
 xmlns:xlink="http://www.w3.org/1999/xlink">
 <defs>
  <style type="text/css">
   <![CDATA[
    .fil4 {fill:#575958;fill-rule:nonzero}
    .fil2 {fill:url(#id0);fill-rule:nonzero}
    .fil1 {fill:url(#id1);fill-rule:nonzero}
    .fil0 {fill:url(#id2);fill-rule:nonzero}
    .fil3 {fill:url(#id3);fill-rule:nonzero}
   ]]>
  </style>
  <linearGradient id="id0" gradientUnits="userSpaceOnUse" x1="-140.94" y1="2060.73" x2="1722.4" y2="916.31">
   <stop offset="0" style="stop-color:#FCC100"/>
   <stop offset="0.25098" style="stop-color:#F8AB1E"/>
   <stop offset="0.501961" style="stop-color:#F49530"/>
   <stop offset="0.74902" style="stop-color:#F18127"/>
   <stop offset="1" style="stop-color:#ED6B20"/>
  </linearGradient>
  <linearGradient id="id1" gradientUnits="userSpaceOnUse" xlink:href="#id0" x1="1991.3" y1="697.93" x2="2495.74" y2="388.11">
  </linearGradient>
  <linearGradient id="id2" gradientUnits="userSpaceOnUse" xlink:href="#id0" x1="513.03" y1="779.24" x2="1620.91" y2="98.82">
  </linearGradient>
  <linearGradient id="id3" gradientUnits="userSpaceOnUse" xlink:href="#id0" x1="1112.84" y1="2184.97" x2="2419.8" y2="1382.27">
  </linearGradient>
 </defs>
 <g id="Layer_x0020_1">
  <metadata id="CorelCorpID_0Corel-Layer"/>
  <g id="_631755120">
   <g>
    <path class="fil0" d="M825 526c368,15 674,124 972,192 39,-126 72,-234 100,-310 31,-83 71,-142 115,-180 -199,-121 -432,-191 -682,-191 -544,0 -1011,332 -1208,804 141,-160 383,-327 703,-315z"/>
    <path class="fil1" d="M1928 745c68,12 136,21 205,25 426,24 244,-224 165,-304 -53,-52 -197,-173 -307,91 -23,56 -44,119 -63,188z"/>
    <path class="fil2" d="M1689 1045c-295,-91 -615,-224 -904,-264 -722,-101 -893,566 -654,1081 120,258 358,435 695,342 431,-119 693,-676 863,-1159z"/>
    <path class="fil3" d="M2565 914c-14,38 -33,69 -56,93 -158,160 -394,151 -660,84 -132,653 -260,1471 -955,1488 137,48 283,74 436,74 723,0 1308,-585 1308,-1308 0,-151 -25,-296 -73,-431z"/>
   </g>
   <g>
    <polygon class="fil4" points="3381,585 3511,585 3511,2105 3381,2105 "/>
    <path class="fil4" d="M4628 1360c0,-212 -108,-276 -267,-276 -141,0 -287,89 -358,189l0 832 -118 0 0 -1101 118 0 0 167c80,-96 237,-194 397,-194 223,0 346,109 346,358l0 770 -118 0 0 -745z"/>
    <path class="fil4" d="M5154 1109l-182 0 0 -105 182 0 0 -100c0,-216 116,-342 298,-342 55,0 105,9 149,34l-37 94c-27,-16 -59,-25 -100,-25 -126,0 -192,86 -192,239l0 100 224 0 0 105 -224 0 0 996 -118 0 0 -996z"/>
    <path class="fil4" d="M5744 726c0,-50 43,-91 91,-91 50,0 91,41 91,91 0,50 -41,91 -91,91 -48,0 -91,-41 -91,-91zm32 278l0 0 119 0 0 1101 -119 0 0 -1101z"/>
    <path class="fil4" d="M7007 1360c0,-212 -108,-276 -267,-276 -141,0 -287,89 -358,189l0 832 -118 0 0 -1101 118 0 0 167c80,-96 237,-194 397,-194 223,0 346,109 346,358l0 770 -118 0 0 -745z"/>
    <path class="fil4" d="M7904 977c335,0 520,267 520,583l0 32 -921 0c12,240 171,438 431,438 139,0 267,-53 360,-153l62 78c-110,114 -249,177 -431,177 -321,0 -552,-239 -552,-578 0,-320 226,-577 531,-577zm-401 522l0 0 800 0c-2,-187 -125,-419 -401,-419 -260,0 -390,227 -399,419z"/>
    <path class="fil4" d="M8672 1004l119 0 0 189c93,-123 219,-211 371,-211l0 129c-20,-4 -36,-4 -59,-4 -112,0 -262,100 -312,196l0 802 -119 0 0 -1101z"/>
    <path class="fil4" d="M10071 1975c-98,107 -221,157 -373,157 -189,0 -385,-130 -385,-367 0,-239 193,-364 385,-364 152,0 278,50 373,157l0 -223c0,-164 -132,-253 -296,-253 -137,0 -244,48 -344,162l-66 -82c114,-124 242,-185 424,-185 223,0 401,107 401,353l0 775 -119 0 0 -130zm0 -328l0 0c-77,-100 -200,-153 -332,-153 -183,0 -301,116 -301,274 0,155 118,271 301,271 132,0 255,-50 332,-150l0 -242z"/>
    <path class="fil4" d="M10287 1105c0,-66 52,-118 119,-118 66,0 117,51 117,117 0,67 -52,119 -118,119 -67,0 -118,-51 -118,-118zm212 0l0 0c0,-55 -40,-96 -94,-96 -54,0 -94,40 -94,95 0,56 40,97 95,97 54,0 93,-41 93,-96zm-140 -67l0 0 49 0c31,0 50,14 50,42 0,20 -9,31 -24,37l26 49 -33 0 -22 -45 -16 0c0,3 0,45 0,45l-30 0 0 -128zm47 61l0 0c15,0 22,-5 22,-17 0,-11 -7,-17 -22,-17l-17 0 0 34 17 0z"/>
   </g>
  </g>
 </g>
</svg>
